HIERARCHY
ROOT Hips
{
	OFFSET 0.000000 0.000000 0.000000 
	CHANNELS 6 Xposition Yposition Zposition Yrotation Zrotation Xrotation 
	JOINT Lumbar
	{
		OFFSET 0.000000 0.000000 0.000000 
		CHANNELS 3 Zrotation Xrotation Yrotation
		JOINT Neck
		{
			OFFSET 0.000000 0.445665 0.000000 
			CHANNELS 3 Zrotation Xrotation Yrotation
			End Site
			{
				OFFSET 0.000000 0.227535 0.000000 
			}
		}
		JOINT RightShoulder
		{
			OFFSET 0.019635 0.377685 0.194865 
			CHANNELS 3 Zrotation Xrotation Yrotation
			JOINT RightElbow
			{
				OFFSET 0.000000 -0.243375 0.000000 
				CHANNELS 2 Zrotation Yrotation
				JOINT RightWrist
				{
					OFFSET 0.000000 -0.264825 0.000000 
					CHANNELS 2 Zrotation Xrotation
					End Site
					{
						OFFSET 0.006600 -0.176220 0.000990 
					}
				}
			}
		}
		JOINT LeftShoulder
		{
			OFFSET 0.019635 0.377685 -0.194865 
			CHANNELS 3 Zrotation Xrotation Yrotation
			JOINT LeftElbow
			{
				OFFSET 0.000000 -0.243375 0.000000 
				CHANNELS 2 Zrotation Yrotation
				JOINT LeftWrist
				{
					OFFSET 0.000000 -0.264825 0.000000 
					CHANNELS 2 Zrotation Xrotation
					End Site
					{
						OFFSET 0.006600 -0.176220 -0.000990 
					}
				}
			}
		}
	}
	JOINT RightHip
	{
		OFFSET 0.052140 -0.069960 0.075570 
		CHANNELS 3 Zrotation Xrotation Yrotation
		JOINT RightKnee
		{
			OFFSET 0.000000 -0.402270 0.000000 
			CHANNELS 1 Zrotation
			JOINT RightAnkle
			{
				OFFSET 0.000000 -0.404085 0.000000 
				CHANNELS 3 Zrotation Xrotation Yrotation
				End Site
				{
					OFFSET 0.204105 -0.089430 0.008415 
				}
			}
		}
	}
	JOINT LeftHip
	{
		OFFSET 0.052140 -0.069960 -0.075570 
		CHANNELS 3 Zrotation Xrotation Yrotation
		JOINT LeftKnee
		{
			OFFSET 0.000000 -0.402270 0.000000 
			CHANNELS 1 Zrotation
			JOINT LeftAnkle
			{
				OFFSET 0.000000 -0.404085 0.000000 
				CHANNELS 3 Zrotation Xrotation Yrotation
				End Site
				{
					OFFSET 0.204105 -0.089430 -0.008415 
				}
			}
		}
	}
}
MOTION
Frames: 17
Frame Time: 0.02
-0 0.95578 0 179.98524 0 -4.38587 6.91362 5.46871 -6.07145 -18.29236 6.41498 1.76767 29.51037 -17.75208 19.70773 14.45397 84.86657 -4.40018 -5.02631 37.31071 0.67479 -15.93315 13.31835 -86.2642 -7.48547 5.45634 -3.43727 6.62234 6.9902 -5.43157 1.26213 -3.31354 -5.33754 -3.37963 1.41357 -8.32668 -4.72146 6.16877 3.9432 5.68503
0.0005 0.95588 9e-05 180.02369 0 -4.39169 6.9251 5.45956 -6.00045 -18.36355 6.32146 1.78013 30.07631 -17.56218 20.46463 14.73288 84.77314 -4.46159 -5.25784 38.37285 0.39005 -16.52502 14.0545 -87.40293 -7.90327 5.75617 -3.39788 6.62536 6.94072 -5.45656 1.23799 -3.25096 -5.32378 -3.32959 1.41683 -8.3671 -4.75322 6.13991 3.94294 5.66325
0.00099 0.95598 0.00019 180.06122 0 -4.39754 6.93606 5.45064 -5.92947 -18.43417 6.22825 1.79285 30.63554 -17.37319 21.21604 15.00868 84.67985 -4.52175 -5.48674 39.42428 0.10736 -17.11441 14.78592 -88.53273 -8.3179 6.05482 -3.35853 6.62846 6.89226 -5.48168 1.21405 -3.18877 -5.31022 -3.27991 1.42015 -8.40686 -4.78487 6.1114 3.94277 5.64183
0.00148 0.95607 0.00028 180.09641 0 -4.40343 6.94597 5.44212 -5.85821 -18.50269 6.13497 1.80651 31.1762 -17.18508 21.9564 15.27759 84.58687 -4.57771 -5.70975 40.44862 -0.17084 -17.69949 15.50977 -89.64233 -8.7274 6.35506 -3.3193 6.63187 6.84629 -5.50714 1.19058 -3.12737 -5.29714 -3.23132 1.42374 -8.44521 -4.81593 6.0837 3.94288 5.62142
0.00201 0.95617 0.00039 180.14515 0 -4.40892 6.96258 5.43098 -5.78879 -18.58169 6.04161 1.8149 31.8185 -16.9912 22.75968 15.58645 84.49308 -4.65615 -5.96684 41.62299 -0.47401 -18.30726 16.27883 -90.86434 -9.16829 6.65096 -3.27983 6.63358 6.78575 -5.5303 1.16454 -3.06155 -5.28131 -3.17713 1.42591 -8.49205 -4.84957 6.05132 3.94137 5.5954
0.00244 0.95626 0.00045 180.1644 0 -4.41537 6.96425 5.42572 -5.71529 -18.6389 5.94882 1.83463 32.24295 -16.81045 23.42606 15.80819 84.40055 -4.6868 -6.14963 42.47444 -0.72324 -18.86651 16.948 -91.84367 -9.53947 6.95299 -3.24063 6.63895 6.75703 -5.55864 1.144 -3.00529 -5.27145 -3.1347 1.43107 -8.52018 -4.87808 6.02916 3.94339 5.58143
0.0026 0.95629 0.00034 180.10615 0 -4.424 6.92909 5.43463 -5.63024 -18.63178 5.85207 1.8855 32.07471 -16.65599 23.7417 15.80558 84.31353 -4.5827 -6.14076 42.46168 -0.83138 -19.3006 17.37814 -92.18539 -9.74536 7.3034 -3.20343 6.6544 6.81104 -5.60001 1.13834 -2.97369 -5.27735 -3.12594 1.44504 -8.50139 -4.88949 6.0332 3.95476 5.60024
0.00265 0.9563 0.00017 180.01718 0 -4.43372 6.87778 5.45007 -5.54104 -18.60364 5.75657 1.94775 31.68505 -16.51631 23.91271 15.71171 84.22724 -4.43069 -6.05413 42.11764 -0.88341 -19.68364 17.70039 -92.27565 -9.87591 7.6541 -3.16614 6.67357 6.89838 -5.64697 1.13824 -2.95201 -5.28945 -3.12884 1.46194 -8.46277 -4.89617 6.04786 3.96976 5.6314
0.00276 0.95633 3e-05 179.93986 0 -4.44324 6.83122 5.46363 -5.45378 -18.58753 5.66428 2.00514 31.39019 -16.37634 24.13468 15.64946 84.13931 -4.30232 -5.99459 41.9074 -0.95653 -20.08603 18.0495 -92.46128 -10.02364 7.98524 -3.12814 6.69108 6.97364 -5.6922 1.13585 -2.9269 -5.29918 -3.12558 1.47719 -8.43019 -4.90704 6.05908 3.98336 5.65716
0.00285 0.95635 -0.00012 179.87299 0 -4.45145 6.79654 5.47177 -5.36624 -18.56006 5.55702 2.06178 31.11848 -16.20982 24.42606 15.63017 84.05728 -4.16627 -5.9709 41.76857 -1.04959 -20.50842 18.49517 -92.7302 -10.244 8.40033 -3.09369 6.70847 7.03515 -5.73376 1.13266 -2.89729 -5.30696 -3.12586 1.49383 -8.41036 -4.90972 6.06476 3.99591 5.6817
0.00295 0.95636 -0.00025 179.77619 0 -4.46272 6.73212 5.4938 -5.27838 -18.55241 5.48003 2.12195 30.74774 -16.10141 24.52954 15.49801 83.96265 -4.0346 -5.85277 41.40141 -1.0861 -20.87224 18.71026 -92.76144 -10.29434 8.63813 -3.05139 6.72696 7.1342 -5.7846 1.13222 -2.87935 -5.32035 -3.12167 1.50821 -8.359 -4.92783 6.08413 4.01152 5.7121
0.00304 0.95633 -0.00032 179.61093 0 -4.48161 6.59858 5.54368 -5.19005 -18.59463 5.49669 2.1957 30.14282 -16.15634 24.22462 15.09156 83.8368 -3.92892 -5.50514 40.49174 -0.99488 -21.12486 18.34913 -92.23834 -9.90205 8.40771 -2.99074 6.74776 7.32071 -5.85725 1.13986 -2.89135 -5.34675 -3.101 1.51594 -8.22684 -4.99384 6.14166 4.03463 5.75219
0.00314 0.95628 -0.00036 179.41494 0 -4.50366 6.43355 5.60915 -5.10169 -18.65925 5.54188 2.27154 29.44879 -16.26838 23.72018 14.57221 83.69733 -3.82902 -5.06375 39.36189 -0.84602 -21.31096 17.75412 -91.47852 -9.34036 7.99488 -2.92135 6.76947 7.5456 -5.9397 1.14967 -2.91463 -5.37861 -3.07563 1.52118 -8.06286 -5.07477 6.212 4.06071 5.7983
0.00325 0.95624 -0.00041 179.22916 0 -4.52464 6.27757 5.67307 -5.01372 -18.7204 5.56711 2.34191 28.80517 -16.34957 23.25966 14.09423 83.56189 -3.72484 -4.65609 38.32899 -0.71385 -21.50541 17.24284 -90.79892 -8.84987 7.65151 -2.8541 6.79062 7.75792 -6.01896 1.15731 -2.93277 -5.40879 -3.05328 1.52739 -7.91316 -5.14618 6.27463 4.08541 5.84402
0.00329 0.95619 -0.0005 179.05987 0 -4.54413 6.14505 5.71307 -4.92393 -18.75314 5.62164 2.4311 28.11146 -16.45048 22.99723 13.65361 83.43645 -3.62537 -4.27953 37.29985 -0.61959 -21.79966 16.8198 -90.22064 -8.37846 7.36484 -2.79554 6.81256 7.94988 -6.09217 1.17032 -2.9517 -5.43638 -3.02776 1.53454 -7.76564 -5.22901 6.34583 4.11027 5.88058
0.00348 0.95616 -0.00048 178.84721 0 -4.56744 5.95414 5.80746 -4.83806 -18.84982 5.62224 2.48229 27.50448 -16.52554 22.26947 13.11132 83.28585 -3.51885 -3.82156 36.21219 -0.43372 -21.85939 16.16287 -89.38513 -7.83148 6.9168 -2.71564 6.83301 8.19414 -6.18137 1.17236 -2.97102 -5.46985 -3.0074 1.53889 -7.60362 -5.29165 6.40176 4.13557 5.93708
0.00401 0.95618 -0.0002 178.54006 0 -4.6007 5.62769 6.04049 -4.76251 -19.12289 5.46305 2.42141 27.15323 -16.49885 20.37107 12.30176 83.07881 -3.385 -3.12221 35.04026 -0.00555 -21.39579 14.88359 -87.8406 -7.08796 6.06855 -2.58822 6.84922 8.56369 -6.30341 1.14533 -2.99344 -5.52483 -3.00323 1.53773 -7.43196 -5.29557 6.41532 4.1604 6.05126
